# xmcd
#
# Track frame offsets:
#	200
#	15887
#	28900
#	41150
#	52215
#	66882
#	77167
#	95445
#	108630
#	124275
#	142757
#	154377
#
# Disc length: 2236 seconds
#
# Revision: 1
# Processed by: cddbd v1.4PL0 Copyright (c) Steve Scherf et al.
# Submitted via: audiograbber 1.81.03
#
DISCID=a508ba0c
DTITLE=Larry Sparks and The Lonesome Ramblers - Silver Reflections
DYEAR=1991
DGENRE=Bluegrass
TTITLE0=Tennessee 1949
TTITLE1=Kentucky Girl
TTITLE2=Please Don't Wake Me
TTITLE3=Richmond
TTITLE4=Don't Neglect The Rose
TTITLE5=You're the Girl of My Dreams
TTITLE6=I'd Like To Be A Train
TTITLE7=Natural Thing To Do
TTITLE8=I Wonder Why You Said Goodbye
TTITLE9=Blue Virginia Blues
TTITLE10=Old Faded Picture
TTITLE11=Cruisin' Timber
EXTD=
EXTT0=
EXTT1=
EXTT2=
EXTT3=
EXTT4=
EXTT5=
EXTT6=
EXTT7=
EXTT8=
EXTT9=
EXTT10=
EXTT11=
PLAYORDER=
